<?xml version="1.0" encoding="UTF-8"?>
<svg xmlns="http://www.w3.org/2000/svg" xmlns:xlink="http://www.w3.org/1999/xlink" viewBox="0 0 64 64" width="64px" height="64px">
<g id="surface62915856">
<path style=" stroke:none;fill-rule:nonzero;fill:rgb(90.588236%,29.803923%,23.529412%);fill-opacity:1;" d="M 24.5 0.5 C 23.671875 0.5 23 1.171875 23 2 C 23 2.828125 23.671875 3.5 24.5 3.5 L 39.5 3.5 C 40.328125 3.5 41 2.828125 41 2 C 41 1.171875 40.328125 0.5 39.5 0.5 Z M 12 7.5 C 8.414062 7.5 5.5 10.414062 5.5 14 C 5.5 17.585938 8.414062 20.5 12 20.5 L 50.5 20.5 L 50.5 52 C 50.5 56.683594 46.683594 60.5 42 60.5 L 22 60.5 C 17.316406 60.5 13.5 56.683594 13.5 52 L 13.5 26 C 13.5 25.171875 12.828125 24.5 12 24.5 C 11.171875 24.5 10.5 25.171875 10.5 26 L 10.5 52 C 10.5 58.339844 15.660156 63.5 22 63.5 L 42 63.5 C 48.339844 63.5 53.5 58.339844 53.5 52 L 53.5 20.320312 C 56.359375 19.640625 58.5 17.070312 58.5 14 C 58.5 10.414062 55.585938 7.5 52 7.5 Z M 12 10.5 L 52 10.5 C 53.929688 10.5 55.5 12.070312 55.5 14 C 55.5 15.929688 53.929688 17.5 52 17.5 L 12 17.5 C 10.070312 17.5 8.5 15.929688 8.5 14 C 8.5 12.070312 10.070312 10.5 12 10.5 Z M 25 27.5 C 24.171875 27.5 23.5 28.171875 23.5 29 L 23.5 52 C 23.5 52.828125 24.171875 53.5 25 53.5 C 25.828125 53.5 26.5 52.828125 26.5 52 L 26.5 29 C 26.5 28.171875 25.828125 27.5 25 27.5 Z M 39 27.5 C 38.171875 27.5 37.5 28.171875 37.5 29 L 37.5 52 C 37.5 52.828125 38.171875 53.5 39 53.5 C 39.828125 53.5 40.5 52.828125 40.5 52 L 40.5 29 C 40.5 28.171875 39.828125 27.5 39 27.5 Z M 39 27.5 "/>
</g>
</svg>
